<mxfile host="Electron" modified="2023-10-28T11:55:58.698Z" agent="Mozilla/5.0 (Windows NT 10.0; Win64; x64) AppleWebKit/537.36 (KHTML, like Gecko) draw.io/22.0.3 Chrome/114.0.5735.289 Electron/25.8.4 Safari/537.36" etag="03tQrbtVzsYlBJT1sBNl" version="22.0.3" type="device">
  <diagram name="PÃ¡gina-1" id="OOdr1fl53M_9JRg_koVk">
    <mxGraphModel dx="603" dy="831" grid="1" gridSize="10" guides="1" tooltips="1" connect="1" arrows="1" fold="1" page="1" pageScale="1" pageWidth="827" pageHeight="1169" math="0" shadow="0">
      <root>
        <mxCell id="0" />
        <mxCell id="1" parent="0" />
        <mxCell id="BS0dGejVyjCKnAxnVSnr-1" value="users" style="rounded=0;whiteSpace=wrap;html=1;fontStyle=1;fillColor=#dae8fc;strokeColor=#6c8ebf;fontSize=13;" vertex="1" parent="1">
          <mxGeometry x="1240" y="795" width="120" height="60" as="geometry" />
        </mxCell>
        <mxCell id="BS0dGejVyjCKnAxnVSnr-2" value="" style="endArrow=none;html=1;rounded=0;exitX=0.5;exitY=1;exitDx=0;exitDy=0;" edge="1" parent="1" source="BS0dGejVyjCKnAxnVSnr-1">
          <mxGeometry width="50" height="50" relative="1" as="geometry">
            <mxPoint x="1300" y="955" as="sourcePoint" />
            <mxPoint x="1390" y="955" as="targetPoint" />
            <Array as="points">
              <mxPoint x="1300" y="955" />
            </Array>
          </mxGeometry>
        </mxCell>
        <mxCell id="BS0dGejVyjCKnAxnVSnr-5" value="roles" style="rounded=0;whiteSpace=wrap;html=1;fillColor=#dae8fc;strokeColor=#6c8ebf;fontStyle=1;fontSize=13;" vertex="1" parent="1">
          <mxGeometry x="1390" y="925" width="120" height="60" as="geometry" />
        </mxCell>
        <mxCell id="BS0dGejVyjCKnAxnVSnr-8" value="1" style="text;html=1;strokeColor=none;fillColor=none;align=center;verticalAlign=middle;whiteSpace=wrap;rounded=0;fontSize=13;" vertex="1" parent="1">
          <mxGeometry x="1330" y="955" width="60" height="30" as="geometry" />
        </mxCell>
        <mxCell id="BS0dGejVyjCKnAxnVSnr-9" value="n" style="text;html=1;strokeColor=none;fillColor=none;align=center;verticalAlign=middle;whiteSpace=wrap;rounded=0;fontSize=13;" vertex="1" parent="1">
          <mxGeometry x="1290" y="855" width="60" height="30" as="geometry" />
        </mxCell>
        <mxCell id="BS0dGejVyjCKnAxnVSnr-10" value="1" style="text;html=1;strokeColor=none;fillColor=none;align=center;verticalAlign=middle;whiteSpace=wrap;rounded=0;fontSize=13;" vertex="1" parent="1">
          <mxGeometry x="1350" y="795" width="60" height="30" as="geometry" />
        </mxCell>
        <mxCell id="BS0dGejVyjCKnAxnVSnr-11" value="1" style="text;html=1;strokeColor=none;fillColor=none;align=center;verticalAlign=middle;whiteSpace=wrap;rounded=0;fontSize=13;" vertex="1" parent="1">
          <mxGeometry x="1190" y="795" width="60" height="30" as="geometry" />
        </mxCell>
        <mxCell id="BS0dGejVyjCKnAxnVSnr-12" value="appointments" style="rounded=0;whiteSpace=wrap;html=1;fillColor=#fff2cc;strokeColor=#d6b656;fontStyle=1;fontSize=13;" vertex="1" parent="1">
          <mxGeometry x="1240" y="555" width="120" height="60" as="geometry" />
        </mxCell>
        <mxCell id="BS0dGejVyjCKnAxnVSnr-13" value="" style="endArrow=none;html=1;rounded=0;entryX=0;entryY=0.5;entryDx=0;entryDy=0;exitX=0;exitY=0.5;exitDx=0;exitDy=0;" edge="1" parent="1" source="BS0dGejVyjCKnAxnVSnr-1" target="BS0dGejVyjCKnAxnVSnr-12">
          <mxGeometry width="50" height="50" relative="1" as="geometry">
            <mxPoint x="1180" y="825" as="sourcePoint" />
            <mxPoint x="1370" y="765" as="targetPoint" />
            <Array as="points">
              <mxPoint x="1140" y="825" />
              <mxPoint x="1140" y="585" />
            </Array>
          </mxGeometry>
        </mxCell>
        <mxCell id="BS0dGejVyjCKnAxnVSnr-14" value="" style="endArrow=none;html=1;rounded=0;entryX=1;entryY=0.5;entryDx=0;entryDy=0;exitX=1;exitY=0.5;exitDx=0;exitDy=0;" edge="1" parent="1" source="BS0dGejVyjCKnAxnVSnr-12" target="BS0dGejVyjCKnAxnVSnr-1">
          <mxGeometry width="50" height="50" relative="1" as="geometry">
            <mxPoint x="1320" y="815" as="sourcePoint" />
            <mxPoint x="1460" y="675" as="targetPoint" />
            <Array as="points">
              <mxPoint x="1460" y="585" />
              <mxPoint x="1460" y="825" />
            </Array>
          </mxGeometry>
        </mxCell>
        <mxCell id="BS0dGejVyjCKnAxnVSnr-15" value="n" style="text;html=1;strokeColor=none;fillColor=none;align=center;verticalAlign=middle;whiteSpace=wrap;rounded=0;fontSize=13;" vertex="1" parent="1">
          <mxGeometry x="1350" y="585" width="60" height="30" as="geometry" />
        </mxCell>
        <mxCell id="BS0dGejVyjCKnAxnVSnr-16" value="n" style="text;html=1;strokeColor=none;fillColor=none;align=center;verticalAlign=middle;whiteSpace=wrap;rounded=0;fontSize=13;" vertex="1" parent="1">
          <mxGeometry x="1190" y="585" width="60" height="30" as="geometry" />
        </mxCell>
        <mxCell id="BS0dGejVyjCKnAxnVSnr-17" value="appointment_portfolio" style="rounded=0;whiteSpace=wrap;html=1;fillColor=#e1d5e7;strokeColor=#9673a6;fontStyle=1;fontSize=13;" vertex="1" parent="1">
          <mxGeometry x="1525" y="425" width="150" height="60" as="geometry" />
        </mxCell>
        <mxCell id="BS0dGejVyjCKnAxnVSnr-18" value="portfolio" style="rounded=0;whiteSpace=wrap;html=1;fillColor=#dae8fc;strokeColor=#6c8ebf;fontStyle=1;fontSize=13;" vertex="1" parent="1">
          <mxGeometry x="1540" y="635" width="120" height="60" as="geometry" />
        </mxCell>
        <mxCell id="BS0dGejVyjCKnAxnVSnr-19" value="" style="endArrow=none;html=1;rounded=0;exitX=0.5;exitY=0;exitDx=0;exitDy=0;entryX=0;entryY=0.5;entryDx=0;entryDy=0;" edge="1" parent="1" source="BS0dGejVyjCKnAxnVSnr-12" target="BS0dGejVyjCKnAxnVSnr-17">
          <mxGeometry width="50" height="50" relative="1" as="geometry">
            <mxPoint x="1370" y="735" as="sourcePoint" />
            <mxPoint x="1420" y="685" as="targetPoint" />
            <Array as="points">
              <mxPoint x="1300" y="455" />
            </Array>
          </mxGeometry>
        </mxCell>
        <mxCell id="BS0dGejVyjCKnAxnVSnr-20" value="" style="endArrow=none;html=1;rounded=0;entryX=0.5;entryY=1;entryDx=0;entryDy=0;exitX=0.5;exitY=0;exitDx=0;exitDy=0;" edge="1" parent="1" source="BS0dGejVyjCKnAxnVSnr-18" target="BS0dGejVyjCKnAxnVSnr-17">
          <mxGeometry width="50" height="50" relative="1" as="geometry">
            <mxPoint x="1320" y="725" as="sourcePoint" />
            <mxPoint x="1370" y="675" as="targetPoint" />
          </mxGeometry>
        </mxCell>
        <mxCell id="BS0dGejVyjCKnAxnVSnr-21" value="1" style="text;html=1;strokeColor=none;fillColor=none;align=center;verticalAlign=middle;whiteSpace=wrap;rounded=0;fontSize=13;" vertex="1" parent="1">
          <mxGeometry x="1290" y="525" width="60" height="30" as="geometry" />
        </mxCell>
        <mxCell id="BS0dGejVyjCKnAxnVSnr-22" value="n" style="text;html=1;strokeColor=none;fillColor=none;align=center;verticalAlign=middle;whiteSpace=wrap;rounded=0;fontSize=13;" vertex="1" parent="1">
          <mxGeometry x="1470" y="420" width="60" height="30" as="geometry" />
        </mxCell>
        <mxCell id="BS0dGejVyjCKnAxnVSnr-23" value="workers" style="text;html=1;strokeColor=none;fillColor=none;align=center;verticalAlign=middle;whiteSpace=wrap;rounded=0;" vertex="1" parent="1">
          <mxGeometry x="1150" y="675" width="60" height="30" as="geometry" />
        </mxCell>
        <mxCell id="BS0dGejVyjCKnAxnVSnr-24" value="clients" style="text;html=1;strokeColor=none;fillColor=none;align=center;verticalAlign=middle;whiteSpace=wrap;rounded=0;" vertex="1" parent="1">
          <mxGeometry x="1390" y="675" width="60" height="30" as="geometry" />
        </mxCell>
        <mxCell id="BS0dGejVyjCKnAxnVSnr-25" value="1" style="text;html=1;strokeColor=none;fillColor=none;align=center;verticalAlign=middle;whiteSpace=wrap;rounded=0;fontSize=13;" vertex="1" parent="1">
          <mxGeometry x="1590" y="605" width="60" height="30" as="geometry" />
        </mxCell>
        <mxCell id="BS0dGejVyjCKnAxnVSnr-26" value="n" style="text;html=1;strokeColor=none;fillColor=none;align=center;verticalAlign=middle;whiteSpace=wrap;rounded=0;fontSize=13;" vertex="1" parent="1">
          <mxGeometry x="1590" y="485" width="60" height="30" as="geometry" />
        </mxCell>
        <mxCell id="BS0dGejVyjCKnAxnVSnr-27" value="worker_id" style="text;html=1;strokeColor=none;fillColor=none;align=center;verticalAlign=middle;whiteSpace=wrap;rounded=0;" vertex="1" parent="1">
          <mxGeometry x="1170" y="545" width="60" height="30" as="geometry" />
        </mxCell>
        <mxCell id="BS0dGejVyjCKnAxnVSnr-28" value="client_id" style="text;html=1;strokeColor=none;fillColor=none;align=center;verticalAlign=middle;whiteSpace=wrap;rounded=0;" vertex="1" parent="1">
          <mxGeometry x="1370" y="545" width="60" height="30" as="geometry" />
        </mxCell>
      </root>
    </mxGraphModel>
  </diagram>
</mxfile>
